<?xml version="1.0" encoding="UTF-8"?>
<svg width="379px" height="57px" viewBox="0 0 379 57" version="1.1" xmlns="http://www.w3.org/2000/svg" xmlns:xlink="http://www.w3.org/1999/xlink">
    <title>bubble-btn@3x</title>
    <defs>
        <path d="M374,10.1048035 C374,10.4227074 362.161742,18.6200873 347.99689,24.8419214 C343.377916,26.8401747 335.884914,29.0882096 330.718507,30.5641921 L330.718507,41.3275109 C330.718507,47.2087336 323.533437,52 314.637636,52 L16.0808709,52 C7.18506998,52 5.68434189e-14,47.2087336 5.68434189e-14,41.3275109 L5.68434189e-14,10.6724891 C5.68434189e-14,4.79126638 7.18506998,0 16.0808709,0 L314.637636,0 C323.533437,0 330.718507,4.79126638 330.718507,10.6724891 L330.718507,12.3528384 C350.118196,14.5100437 373.349922,10.241048 373.965785,10.1048035 L374,10.1048035 Z" id="path-1"></path>
        <filter x="-0.5%" y="-3.8%" width="102.1%" height="115.4%" filterUnits="objectBoundingBox" id="filter-2">
            <feOffset dx="4" dy="4" in="SourceAlpha" result="shadowOffsetOuter1"></feOffset>
            <feComposite in="shadowOffsetOuter1" in2="SourceAlpha" operator="out" result="shadowOffsetOuter1"></feComposite>
            <feColorMatrix values="0 0 0 0 0   0 0 0 0 0   0 0 0 0 0  0 0 0 1 0" type="matrix" in="shadowOffsetOuter1"></feColorMatrix>
        </filter>
    </defs>
    <g id="Page-1" stroke="none" stroke-width="1" fill="none" fill-rule="evenodd">
        <g id="splash" transform="translate(-262, -482)">
            <g id="bubble-btn" transform="translate(262.82, 482.11)">
                <g id="Path" fill-rule="nonzero">
                    <use fill="black" fill-opacity="1" filter="url(#filter-2)" xlink:href="#path-1"></use>
                    <path stroke="#000000" stroke-width="2" d="M314.637636,1 C318.861857,1 322.686468,2.12257477 325.452615,3.95840002 C328.044195,5.67837019 329.718507,8.03180994 329.718507,10.6724891 L329.718507,13.2429611 C344.63539,15.0654533 362.072017,12.9741218 369.934754,11.7891194 L369.936,11.789 L369.907191,11.8088927 C369.697767,11.9465324 369.479891,12.0886583 369.253851,12.2349726 L368.908708,12.4575482 C366.975306,13.6997652 364.497957,15.2156036 361.638213,16.838483 C357.574756,19.1444592 352.739243,21.6666526 347.599835,23.9241266 C342.792664,26.0037975 334.849091,28.3527719 329.718507,29.8092029 L329.718507,41.3275109 C329.718507,43.9681901 328.044195,46.3216298 325.452615,48.0416 C322.686468,49.8774252 318.861857,51 314.637636,51 L16.0808709,51 C11.8566503,51 8.032039,49.8774252 5.26589244,48.0416 C2.6743116,46.3216298 1,43.9681901 1,41.3275109 L1,10.6724891 C1,8.03180994 2.6743116,5.67837019 5.26589244,3.95840002 C8.032039,2.12257477 11.8566503,1 16.0808709,1 Z" stroke-linejoin="square" fill="#FFFFFF" fill-rule="evenodd"></path>
                </g>
                <g id="Hi!-I’m-Dr.-Myron-Me" transform="translate(22.18, 13.89)" fill="#332352" fill-rule="nonzero">
                    <polygon id="Path" points="1.75347102 20 4.39144862 20 4.39144862 13.5826569 11.5903317 13.5826569 11.5903317 20 14.2283093 20 14.2283093 5.20361328 11.5903317 5.20361328 11.5903317 11.3565979 4.39144862 11.3565979 4.39144862 5.20361328 1.75347102 5.20361328"></polygon>
                    <path d="M16.9053233,20 L19.4558222,20 L19.4558222,8.92337799 L16.9053233,8.92337799 L16.9053233,20 Z M18.1848185,7.1678772 C18.5974314,7.1678772 18.9476931,7.02429581 19.2356036,6.73713303 C19.523514,6.44997025 19.6674693,6.10601044 19.6674693,5.7052536 C19.6674693,5.29766083 19.523514,4.9516716 19.2356036,4.66728592 C18.9476931,4.38290024 18.5974314,4.2407074 18.1848185,4.2407074 C17.7782939,4.2407074 17.4295809,4.38290024 17.1386798,4.66728592 C16.8477786,4.9516716 16.702328,5.29766083 16.702328,5.7052536 C16.702328,6.10601044 16.8477786,6.44997025 17.1386798,6.73713303 C17.4295809,7.02429581 17.7782939,7.1678772 18.1848185,7.1678772 Z" id="Shape"></path>
                    <path d="M22.7485395,15.0851746 L25.0550276,15.0851746 L25.2775694,5.19928741 L22.5258375,5.19928741 L22.7485395,15.0851746 Z M23.9061094,20.2023544 C24.3860136,20.2023544 24.7755018,20.0588531 25.0745741,19.7718506 C25.3736463,19.484848 25.5231825,19.1128769 25.5231825,18.6559372 C25.5231825,18.1937637 25.3736463,17.8196297 25.0745741,17.533535 C24.7755018,17.2474403 24.3860136,17.104393 23.9061094,17.104393 C23.4270597,17.104393 23.0368238,17.2474403 22.7354017,17.533535 C22.4339796,17.8196297 22.2832685,18.1937637 22.2832685,18.6559372 C22.2832685,19.1128769 22.4339796,19.484848 22.7354017,19.7718506 C23.0368238,20.0588531 23.4270597,20.2023544 23.9061094,20.2023544 Z" id="Shape"></path>
                    <polygon id="Path" points="33.2790741 20 35.9170517 20 35.9170517 5.20361328 33.2790741 5.20361328"></polygon>
                    <polygon id="Path" points="38.5352059 11.0863113 40.2947121 11.0863113 41.9651375 5.20361328 39.3947716 5.20361328"></polygon>
                    <path d="M44.0130093,20 L46.5635083,20 L46.5635083,13.2415543 C46.5635083,12.7852554 46.6560605,12.3771553 46.8411649,12.0172539 C47.0262692,11.6573524 47.281255,11.3732071 47.6061223,11.1648178 C47.9309895,10.9564285 48.3017056,10.8522339 48.7182706,10.8522339 C49.3327573,10.8522339 49.8170674,11.0298347 50.171201,11.3850365 C50.5253346,11.7402382 50.7024014,12.2273254 50.7024014,12.8462982 L50.7024014,20 L53.226785,20 L53.226785,13.1090546 C53.226785,12.6744385 53.3157323,12.2877274 53.4936269,11.9489212 C53.6715215,11.6101151 53.9217275,11.3426323 54.2442449,11.1464729 C54.5667622,10.9503136 54.9435666,10.8522339 55.3746579,10.8522339 C56.0366757,10.8522339 56.5354588,11.0353088 56.8710072,11.4014587 C57.2065556,11.7676086 57.3743298,12.3047638 57.3743298,13.0129242 L57.3743298,20 L59.9248288,20 L59.9248288,12.3872757 C59.9248288,11.6281662 59.7791646,10.9738388 59.4878362,10.4242935 C59.1965077,9.87474823 58.7833875,9.45025253 58.2484754,9.15080643 C57.7135632,8.85136032 57.0771802,8.70163727 56.3393262,8.70163727 C55.820329,8.70163727 55.3366597,8.78764725 54.8883183,8.95966721 C54.439977,9.13168716 54.0495007,9.37372208 53.7168897,9.68577194 C53.3842786,9.99782181 53.1276639,10.3666153 52.9470456,10.7921524 L52.8171094,10.7921524 C52.6681073,10.3555069 52.4490102,9.98169327 52.159818,9.67071152 C51.8706258,9.35972977 51.5226872,9.12047195 51.1160024,8.95293808 C50.7093175,8.78540421 50.2526715,8.70163727 49.7460645,8.70163727 C49.0180371,8.70163727 48.3864339,8.87579346 47.8512547,9.22410583 C47.3160756,9.57241821 46.9301923,10.052002 46.6936047,10.6628571 L46.5635083,10.6628571 L46.5635083,8.92337799 L44.0130093,8.92337799 L44.0130093,20 Z" id="Path"></path>
                    <path d="M67.1800432,20 L72.6711702,20 C74.1482668,20 75.4064531,19.7076836 76.4457293,19.1230507 C77.4850054,18.5384178 78.2797632,17.6902809 78.8300028,16.57864 C79.3802424,15.4669991 79.6553621,14.1256332 79.6553621,12.5545425 L79.6553621,12.5340347 C79.6553621,10.981636 79.3791208,9.65949631 78.8266382,8.56761551 C78.2741556,7.47573471 77.4775553,6.64209747 76.4368372,6.0667038 C75.3961191,5.49131012 74.1408968,5.20361328 72.6711702,5.20361328 L67.1800432,5.20361328 L67.1800432,20 Z M69.8180208,17.7726593 L69.8180208,7.43095398 L72.3460894,7.43095398 C73.3206377,7.43095398 74.1521921,7.63082504 74.8407526,8.03056717 C75.5293131,8.4303093 76.055253,9.01301956 76.4185724,9.77869797 C76.7818918,10.5443764 76.9635515,11.4728088 76.9635515,12.5639954 L76.9635515,12.5845032 C76.9635515,13.6956635 76.7844553,14.6377945 76.4262629,15.4108963 C76.0680704,16.1839981 75.545228,16.7709007 74.8577356,17.1716042 C74.1702433,17.5723076 73.3330279,17.7726593 72.3460894,17.7726593 L69.8180208,17.7726593 Z" id="Shape"></path>
                    <path d="M81.7053711,20 L84.25587,20 L84.25587,13.5437241 C84.25587,13.0169296 84.3635627,12.5629807 84.5789482,12.1818771 C84.7943336,11.8007736 85.0994407,11.5062408 85.4942695,11.2982788 C85.8890983,11.0903168 86.3534347,10.9863358 86.8872787,10.9863358 C87.1080581,10.9863358 87.3183967,10.9991264 87.5182945,11.0247078 C87.7181922,11.0502892 87.9022018,11.0857239 88.0703231,11.131012 L88.0703231,8.83670044 C87.9558212,8.80604553 87.8142692,8.77987671 87.6456672,8.75819397 C87.4770652,8.73651123 87.3020279,8.72566986 87.1205551,8.72566986 C86.4211532,8.72566986 85.8317405,8.89736938 85.352317,9.24076843 C84.8728935,9.58416748 84.5418579,10.0634842 84.3592102,10.6787186 L84.2291137,10.6787186 L84.2291137,8.92337799 L81.7053711,8.92337799 L81.7053711,20 Z" id="Path"></path>
                    <path d="M89.770725,20.1858521 C90.2201879,20.1858521 90.5949094,20.0344734 90.8948896,19.7317162 C91.1948698,19.4289589 91.3448598,19.0589905 91.3448598,18.6218109 C91.3448598,18.1804657 91.1948698,17.8094559 90.8948896,17.5087814 C90.5949094,17.208107 90.2201879,17.0577698 89.770725,17.0577698 C89.3255346,17.0577698 88.9519079,17.208107 88.6498449,17.5087814 C88.3477819,17.8094559 88.1967504,18.1804657 88.1967504,18.6218109 C88.1967504,19.0589905 88.3477819,19.4289589 88.6498449,19.7317162 C88.9519079,20.0344734 89.3255346,20.1858521 89.770725,20.1858521 Z" id="Path"></path>
                    <polygon id="Path" points="98.36897 20 100.747396 20 100.747396 9.47692871 102.01167 9.47692871 99.3635989 5.61376953 105.053876 20 106.856 20 112.550443 5.61376953 109.898046 9.47692871 111.16232 9.47692871 111.16232 20 113.540906 20 113.540906 5.20361328 110.504148 5.20361328 106.02303 16.5615768 105.890851 16.5615768 101.405568 5.20361328 98.36897 5.20361328"></polygon>
                    <path d="M117.469666,23.8139725 C118.269898,23.8139725 118.955227,23.7040367 119.525654,23.4841652 C120.096081,23.2642937 120.58437,22.8971291 120.990521,22.3826714 C121.396671,21.8682137 121.752594,21.1710281 122.058289,20.2911148 L126.036324,8.92337799 L123.348198,8.92337799 L120.490883,18.5777512 L121.057892,17.6561813 L120.308235,17.6561813 L120.886299,18.5777512 L118.02594,8.92337799 L115.245369,8.92337799 L119.216995,20.0070496 L119.069275,20.4958725 C118.92305,20.9847488 118.696289,21.3316193 118.388992,21.5364838 C118.081696,21.7413483 117.672501,21.8437805 117.161408,21.8437805 C117.01091,21.8437805 116.866234,21.838707 116.727379,21.8285599 C116.588524,21.8184128 116.46788,21.805542 116.365448,21.7899475 L116.365448,23.7453995 C116.522247,23.7644119 116.6983,23.7805939 116.893604,23.7939453 C117.088909,23.8072968 117.28093,23.8139725 117.469666,23.8139725 Z" id="Path"></path>
                    <path d="M127.47252,20 L130.023019,20 L130.023019,13.5437241 C130.023019,13.0169296 130.130711,12.5629807 130.346097,12.1818771 C130.561482,11.8007736 130.866589,11.5062408 131.261418,11.2982788 C131.656247,11.0903168 132.120583,10.9863358 132.654427,10.9863358 C132.875207,10.9863358 133.085545,10.9991264 133.285443,11.0247078 C133.485341,11.0502892 133.66935,11.0857239 133.837472,11.131012 L133.837472,8.83670044 C133.72297,8.80604553 133.581418,8.77987671 133.412816,8.75819397 C133.244214,8.73651123 133.069177,8.72566986 132.887704,8.72566986 C132.188302,8.72566986 131.598889,8.89736938 131.119466,9.24076843 C130.640042,9.58416748 130.309007,10.0634842 130.126359,10.6787186 L129.996262,10.6787186 L129.996262,8.92337799 L127.47252,8.92337799 L127.47252,20 Z" id="Path"></path>
                    <path d="M139.756039,20.2217407 C140.856091,20.2217407 141.804738,19.9908943 142.601979,19.5292015 C143.39922,19.0675087 144.014588,18.4068527 144.448083,17.5472336 C144.881577,16.6876144 145.098324,15.6609421 145.098324,14.4672165 L145.098324,14.4467087 C145.098324,13.2557602 144.879948,12.2312775 144.443196,11.3732605 C144.006444,10.5152435 143.388993,9.85546875 142.590844,9.39393616 C141.792695,8.93240356 140.846852,8.70163727 139.753316,8.70163727 C138.666615,8.70163727 137.723496,8.93293762 136.923958,9.39553833 C136.124421,9.85813904 135.505955,10.5186615 135.068562,11.3771057 C134.631169,12.2355499 134.412472,13.2587509 134.412472,14.4467087 L134.412472,14.4672165 C134.412472,15.6583786 134.629326,16.6842232 135.063035,17.5447502 C135.496743,18.4052773 136.113392,19.0665741 136.912983,19.5286407 C137.712575,19.9907074 138.66026,20.2217407 139.756039,20.2217407 Z M139.760045,18.1555786 C139.187428,18.1555786 138.696816,18.0102615 138.288209,17.7196274 C137.879601,17.4289932 137.565816,17.00877 137.346852,16.4589577 C137.127888,15.9091454 137.018406,15.2459259 137.018406,14.4692993 L137.018406,14.4487915 C137.018406,13.672699 137.128422,13.0109749 137.348454,12.4636192 C137.568486,11.9162636 137.882832,11.496788 138.291493,11.2051926 C138.700154,10.9135971 139.187428,10.7677994 139.753316,10.7677994 C140.324223,10.7677994 140.81366,10.9131432 141.221627,11.2038307 C141.629593,11.4945183 141.943352,11.9139938 142.162903,12.4622574 C142.382454,13.0105209 142.49223,13.672699 142.49223,14.4487915 L142.49223,14.4692993 C142.49223,15.2446442 142.383202,15.9072227 142.165146,16.4570351 C141.947091,17.0068474 141.634987,17.4273911 141.228837,17.7186661 C140.822686,18.0099411 140.333088,18.1555786 139.760045,18.1555786 Z" id="Shape"></path>
                    <path d="M146.944731,20 L149.49523,20 L149.49523,13.5559006 C149.49523,13.0062485 149.594805,12.5297623 149.793955,12.126442 C149.993105,11.7231216 150.275248,11.4099236 150.640383,11.1868477 C151.005518,10.9637718 151.438025,10.8522339 151.937903,10.8522339 C152.692419,10.8522339 153.252085,11.0671654 153.6169,11.4970284 C153.981714,11.9268913 154.164122,12.559082 154.164122,13.3936005 L154.164122,20 L156.714621,20 L156.714621,12.8344421 C156.714621,11.5264282 156.385294,10.5106239 155.726641,9.78702927 C155.067988,9.0634346 154.123747,8.70163727 152.893919,8.70163727 C152.079909,8.70163727 151.400133,8.87456512 150.854594,9.22042084 C150.309054,9.56627655 149.899298,10.0369949 149.625326,10.632576 L149.49523,10.632576 L149.49523,8.92337799 L146.944731,8.92337799 L146.944731,20 Z" id="Path"></path>
                    <polygon id="Path" points="163.968619 20 166.347045 20 166.347045 9.47692871 167.611319 9.47692871 164.963248 5.61376953 170.653525 20 172.455649 20 178.150092 5.61376953 175.497695 9.47692871 176.761969 9.47692871 176.761969 20 179.140555 20 179.140555 5.20361328 176.103797 5.20361328 171.62268 16.5615768 171.4905 16.5615768 167.005217 5.20361328 163.968619 5.20361328"></polygon>
                    <path d="M186.56093,20.2217407 C187.301241,20.2217407 187.954901,20.1255836 188.52191,19.9332695 C189.088919,19.7409554 189.571867,19.4854088 189.970755,19.1666298 C190.369642,18.8478508 190.688635,18.4967613 190.927732,18.1133614 C191.16683,17.7299614 191.330492,17.3473358 191.418718,16.9654846 L191.44243,16.8619843 L189.036127,16.8639069 L189.005525,16.9368057 C188.926165,17.1347275 188.782877,17.3328629 188.575663,17.5312119 C188.368448,17.7295609 188.101553,17.8943977 187.774977,18.0257225 C187.4484,18.1570473 187.061716,18.2227097 186.614923,18.2227097 C186.036005,18.2227097 185.535673,18.0946159 185.113928,17.8384285 C184.692182,17.5822411 184.367422,17.2132874 184.139646,16.7315674 C183.911871,16.2498474 183.797983,15.6697006 183.797983,14.991127 L183.797983,13.9814377 C183.797983,13.2746658 183.913553,12.6769218 184.144693,12.1882057 C184.375833,11.6994896 184.692396,11.3293877 185.094381,11.0778999 C185.496366,10.8264122 185.955042,10.7006683 186.470407,10.7006683 C186.987055,10.7006683 187.442072,10.8217392 187.835459,11.0638809 C188.228845,11.3060226 188.53689,11.6695824 188.759592,12.1545601 C188.982294,12.6395378 189.093645,13.248497 189.093645,13.9814377 L189.093645,14.9845581 L190.313219,13.3875122 L182.531305,13.3875122 L182.531305,15.0967102 L191.549776,15.0967102 L191.549776,14.260376 C191.549776,13.1468658 191.343603,12.1732254 190.931257,11.3394547 C190.518911,10.5056839 189.930754,9.85760498 189.166784,9.3952179 C188.402815,8.93283081 187.494409,8.70163727 186.441568,8.70163727 C185.390436,8.70163727 184.476263,8.94092178 183.699049,9.41949081 C182.921835,9.89805984 182.320246,10.569931 181.894281,11.4351044 C181.468317,12.3002777 181.255335,13.3150406 181.255335,14.479393 L181.255335,14.4896469 C181.255335,15.6626511 181.468397,16.6781883 181.894522,17.5362587 C182.320646,18.3943291 182.929766,19.056427 183.72188,19.5225525 C184.513994,19.988678 185.460344,20.2217407 186.56093,20.2217407 Z" id="Path"></path>
                    <path d="M197.661274,20.1179199 C197.915486,20.1179199 198.15469,20.1064911 198.378888,20.0836334 C198.603085,20.0607758 198.79855,20.0353012 198.965283,20.0072098 L198.965283,18.0602493 C198.839032,18.0721054 198.719029,18.0824394 198.605275,18.0912514 C198.49152,18.1000633 198.355603,18.1044693 198.197522,18.1044693 C197.69241,18.1044693 197.322094,17.9878578 197.086575,17.7546349 C196.851056,17.5214119 196.733296,17.130455 196.733296,16.5817642 L196.733296,10.8934097 L198.965283,10.8934097 L198.965283,8.92337799 L196.733296,8.92337799 L196.733296,6.16732025 L194.14082,6.16732025 L194.14082,8.92337799 L192.477604,8.92337799 L192.477604,10.8934097 L194.14082,10.8934097 L194.14082,17.03582 C194.14082,18.12957 194.421147,18.9166908 194.981801,19.3971825 C195.542454,19.8776741 196.435612,20.1179199 197.661274,20.1179199 Z" id="Path"></path>
                    <polygon id="Path" points="200.604325 20 209.532433 20 209.532433 18.0299683 203.800019 18.0299683 203.800019 17.9025955 209.439988 10.6130295 209.439988 8.92337799 200.663285 8.92337799 200.663285 10.8934097 206.466195 10.8934097 206.466195 11.0209427 200.604325 18.4450912"></polygon>
                    <path d="M216.164558,20.2217407 C216.904868,20.2217407 217.558528,20.1255836 218.125537,19.9332695 C218.692546,19.7409554 219.175494,19.4854088 219.574382,19.1666298 C219.97327,18.8478508 220.292262,18.4967613 220.53136,18.1133614 C220.770457,17.7299614 220.934119,17.3473358 221.022346,16.9654846 L221.046058,16.8619843 L218.639754,16.8639069 L218.609153,16.9368057 C218.529792,17.1347275 218.386504,17.3328629 218.17929,17.5312119 C217.972076,17.7295609 217.70518,17.8943977 217.378604,18.0257225 C217.052028,18.1570473 216.665343,18.2227097 216.218551,18.2227097 C215.639632,18.2227097 215.139301,18.0946159 214.717555,17.8384285 C214.29581,17.5822411 213.971049,17.2132874 213.743274,16.7315674 C213.515498,16.2498474 213.401611,15.6697006 213.401611,14.991127 L213.401611,13.9814377 C213.401611,13.2746658 213.517181,12.6769218 213.748321,12.1882057 C213.979461,11.6994896 214.296024,11.3293877 214.698009,11.0778999 C215.099994,10.8264122 215.558669,10.7006683 216.074035,10.7006683 C216.590682,10.7006683 217.045699,10.8217392 217.439086,11.0638809 C217.832473,11.3060226 218.140517,11.6695824 218.363219,12.1545601 C218.585921,12.6395378 218.697272,13.248497 218.697272,13.9814377 L218.697272,14.9845581 L219.916846,13.3875122 L212.134933,13.3875122 L212.134933,15.0967102 L221.153403,15.0967102 L221.153403,14.260376 C221.153403,13.1468658 220.947231,12.1732254 220.534885,11.3394547 C220.122539,10.5056839 219.534381,9.85760498 218.770412,9.3952179 C218.006442,8.93283081 217.098037,8.70163727 216.045196,8.70163727 C214.994064,8.70163727 214.07989,8.94092178 213.302676,9.41949081 C212.525462,9.89805984 211.923873,10.569931 211.497909,11.4351044 C211.071944,12.3002777 210.858962,13.3150406 210.858962,14.479393 L210.858962,14.4896469 C210.858962,15.6626511 211.072025,16.6781883 211.498149,17.5362587 C211.924274,18.3943291 212.533393,19.056427 213.325507,19.5225525 C214.117622,19.988678 215.063972,20.2217407 216.164558,20.2217407 Z" id="Path"></path>
                    <path d="M222.998636,20 L225.549135,20 L225.549135,13.5559006 C225.549135,13.0062485 225.64871,12.5297623 225.84786,12.126442 C226.04701,11.7231216 226.329153,11.4099236 226.694288,11.1868477 C227.059423,10.9637718 227.49193,10.8522339 227.991808,10.8522339 C228.746324,10.8522339 229.30599,11.0671654 229.670805,11.4970284 C230.03562,11.9268913 230.218027,12.559082 230.218027,13.3936005 L230.218027,20 L232.768526,20 L232.768526,12.8344421 C232.768526,11.5264282 232.439199,10.5106239 231.780546,9.78702927 C231.121893,9.0634346 230.177652,8.70163727 228.947824,8.70163727 C228.133814,8.70163727 227.454038,8.87456512 226.908499,9.22042084 C226.362959,9.56627655 225.953203,10.0369949 225.679231,10.632576 L225.549135,10.632576 L225.549135,8.92337799 L222.998636,8.92337799 L222.998636,20 Z" id="Path"></path>
                    <path d="M241.21743,20.1977081 C242.149467,20.1977081 242.956562,19.9653931 243.638714,19.5007629 C244.320865,19.0361328 244.848167,18.374836 245.220619,17.5168724 C245.593071,16.6589088 245.779297,15.6426239 245.779297,14.4680176 L245.779297,14.4515152 C245.779297,13.2705002 245.593632,12.2521858 245.222301,11.3965721 C244.850971,10.5409584 244.325111,9.8819046 243.644722,9.41941071 C242.964332,8.95691681 242.157051,8.72566986 241.222877,8.72566986 C240.454796,8.72566986 239.770614,8.90559387 239.170334,9.26544189 C238.570053,9.62528992 238.120483,10.1159286 237.821625,10.7373581 L237.691528,10.7373581 L237.691528,4.74010468 L235.141189,4.74010468 L235.141189,20 L237.691528,20 L237.691528,18.2105331 L237.821625,18.2105331 C238.13298,18.8331375 238.580707,19.3199844 239.164806,19.6710739 C239.748905,20.0221634 240.433113,20.1977081 241.21743,20.1977081 Z M240.434448,18.0471115 C239.874862,18.0471115 239.387508,17.9021683 238.972385,17.6122818 C238.557262,17.3223953 238.236027,16.9093285 238.008678,16.3730812 C237.78133,15.836834 237.667656,15.2028809 237.667656,14.4712219 L237.667656,14.4547195 C237.667656,13.7180405 237.782104,13.0827522 238.011001,12.5488548 C238.239899,12.0149574 238.561695,11.6027184 238.976391,11.3121376 C239.391086,11.0215569 239.877106,10.8762665 240.434448,10.8762665 C241.003113,10.8762665 241.492363,11.0202751 241.902199,11.3082924 C242.312034,11.5963097 242.627689,12.006813 242.849163,12.5398026 C243.070637,13.0727921 243.181373,13.7100296 243.181373,14.4515152 L243.181373,14.4680176 C243.181373,15.2070465 243.07085,15.8446846 242.849804,16.3809319 C242.628757,16.9171791 242.313316,17.3289375 241.90348,17.6162071 C241.493645,17.9034767 241.003967,18.0471115 240.434448,18.0471115 Z" id="Shape"></path>
                    <path d="M250.745526,20.1852112 C251.23483,20.1852112 251.688432,20.1144485 252.106332,19.9729233 C252.524232,19.831398 252.896283,19.6272545 253.222486,19.3604927 C253.548688,19.0937309 253.814488,18.7763138 254.019887,18.4082413 L254.149983,18.4082413 L254.149983,20 L256.6843,20 L256.6843,12.4130707 C256.6843,11.6470184 256.506112,10.9865494 256.149735,10.4316635 C255.793359,9.87677765 255.28045,9.44971848 254.611009,9.15048599 C253.941567,8.85125351 253.135221,8.70163727 252.191968,8.70163727 C251.293683,8.70163727 250.508218,8.83867645 249.835572,9.11275482 C249.162927,9.38683319 248.628522,9.7660141 248.232358,10.2502975 C247.836194,10.734581 247.600995,11.2957687 247.526761,11.9338608 L247.516507,12.0315933 L249.908071,12.0315933 L249.924253,11.9719925 C250.036191,11.5903549 250.275743,11.2882919 250.642907,11.0658035 C251.010072,10.8433151 251.489736,10.7320709 252.081899,10.7320709 C252.756734,10.7320709 253.270123,10.8847847 253.622067,11.1902122 C253.974011,11.4956398 254.149983,11.9267044 254.149983,12.4834061 L254.149983,15.9200668 C254.149983,16.3581009 254.035214,16.7517548 253.805676,17.1010284 C253.576139,17.4503021 253.262967,17.7261696 252.866162,17.9286308 C252.469358,18.1310921 252.018292,18.2323227 251.512967,18.2323227 C250.949109,18.2323227 250.49014,18.1001434 250.13606,17.8357849 C249.78198,17.5714264 249.604939,17.2074661 249.604939,16.7439041 L249.604939,16.7245178 C249.604939,16.2746277 249.774476,15.9195061 250.113549,15.659153 C250.452622,15.3987999 250.962194,15.2488632 251.642262,15.209343 L255.434606,14.966774 L255.434606,13.2852936 L251.280972,13.535553 C249.938672,13.6149139 248.90244,13.9382057 248.172277,14.5054283 C247.442113,15.0726509 247.077031,15.8512802 247.077031,16.8413162 L247.077031,16.8605423 C247.077031,17.5261917 247.233804,18.1090088 247.547349,18.6089935 C247.860894,19.1089783 248.294015,19.4966774 248.846711,19.7720909 C249.399407,20.0475044 250.032346,20.1852112 250.745526,20.1852112 Z" id="Path"></path>
                    <path d="M262.706658,20.2217407 C263.522485,20.2217407 264.208295,20.0495338 264.764089,19.7051201 C265.319883,19.3607063 265.732255,18.8907623 266.001207,18.2952881 L266.131303,18.2952881 L266.131303,20 L268.681802,20 L268.681802,8.92337799 L266.131303,8.92337799 L266.131303,15.3674774 C266.131303,15.9102936 266.033891,16.3850708 265.839067,16.7918091 C265.644242,17.1985474 265.361566,17.5134544 264.991037,17.7365303 C264.620507,17.9596062 264.171952,18.0711441 263.645372,18.0711441 C262.890748,18.0711441 262.338266,17.8554916 261.987924,17.4241867 C261.637582,16.9928818 261.462411,16.361412 261.462411,15.5297775 L261.462411,8.92337799 L258.911912,8.92337799 L258.911912,16.0889359 C258.911912,16.955925 259.056348,17.6985054 259.34522,18.3166771 C259.634092,18.9348488 260.061151,19.4069023 260.626397,19.7328377 C261.191644,20.058773 261.885064,20.2217407 262.706658,20.2217407 Z" id="Path"></path>
                    <path d="M271.043731,20 L273.59423,20 L273.59423,13.2415543 C273.59423,12.7852554 273.686782,12.3771553 273.871886,12.0172539 C274.056991,11.6573524 274.311977,11.3732071 274.636844,11.1648178 C274.961711,10.9564285 275.332427,10.8522339 275.748992,10.8522339 C276.363479,10.8522339 276.847789,11.0298347 277.201923,11.3850365 C277.556056,11.7402382 277.733123,12.2273254 277.733123,12.8462982 L277.733123,20 L280.257507,20 L280.257507,13.1090546 C280.257507,12.6744385 280.346454,12.2877274 280.524348,11.9489212 C280.702243,11.6101151 280.952449,11.3426323 281.274966,11.1464729 C281.597484,10.9503136 281.974288,10.8522339 282.405379,10.8522339 C283.067397,10.8522339 283.56618,11.0353088 283.901729,11.4014587 C284.237277,11.7676086 284.405051,12.3047638 284.405051,13.0129242 L284.405051,20 L286.95555,20 L286.95555,12.3872757 C286.95555,11.6281662 286.809886,10.9738388 286.518558,10.4242935 C286.227229,9.87474823 285.814109,9.45025253 285.279197,9.15080643 C284.744285,8.85136032 284.107902,8.70163727 283.370048,8.70163727 C282.851051,8.70163727 282.367381,8.78764725 281.91904,8.95966721 C281.470699,9.13168716 281.080222,9.37372208 280.747611,9.68577194 C280.415,9.99782181 280.158385,10.3666153 279.977767,10.7921524 L279.847831,10.7921524 C279.698829,10.3555069 279.479732,9.98169327 279.19054,9.67071152 C278.901347,9.35972977 278.553409,9.12047195 278.146724,8.95293808 C277.740039,8.78540421 277.283393,8.70163727 276.776786,8.70163727 C276.048759,8.70163727 275.417155,8.87579346 274.881976,9.22410583 C274.346797,9.57241821 273.960914,10.052002 273.724326,10.6628571 L273.59423,10.6628571 L273.59423,8.92337799 L271.043731,8.92337799 L271.043731,20 Z" id="Path"></path>
                </g>
            </g>
        </g>
    </g>
</svg>