<?xml version="1.0" encoding="UTF-8"?>
<svg width="153px" height="65px" viewBox="0 0 153 65" version="1.1" xmlns="http://www.w3.org/2000/svg" xmlns:xlink="http://www.w3.org/1999/xlink">
    <title>site button</title>
    <defs>
        <rect id="path-1" x="0" y="0" width="149" height="61" rx="5"></rect>
        <filter x="-1.3%" y="-3.3%" width="105.4%" height="113.1%" filterUnits="objectBoundingBox" id="filter-2">
            <feOffset dx="4" dy="4" in="SourceAlpha" result="shadowOffsetOuter1"></feOffset>
            <feComposite in="shadowOffsetOuter1" in2="SourceAlpha" operator="out" result="shadowOffsetOuter1"></feComposite>
            <feColorMatrix values="0 0 0 0 0   0 0 0 0 0   0 0 0 0 0  0 0 0 1 0" type="matrix" in="shadowOffsetOuter1"></feColorMatrix>
        </filter>
    </defs>
    <g id="Page-1" stroke="none" stroke-width="1" fill="none" fill-rule="evenodd">
        <g id="splash" transform="translate(-646, -733)">
            <g id="site-button" transform="translate(646, 733)">
                <g id="Rectangle">
                    <use fill="black" fill-opacity="1" filter="url(#filter-2)" xlink:href="#path-1"></use>
                    <rect stroke="#000000" stroke-width="2" stroke-linejoin="square" fill="#A985FF" fill-rule="evenodd" x="1" y="1" width="147" height="59" rx="5"></rect>
                </g>
                <g id="Enter-Site" transform="translate(27, 18)" fill="#332352" fill-rule="nonzero">
                    <polygon id="Path" points="1.8234508 20 11.6261852 20 11.6261852 17.4467773 4.92013049 17.4467773 4.92013049 13.7170792 11.2467906 13.7170792 11.2467906 11.3224716 4.92013049 11.3224716 4.92013049 7.75683594 11.6261852 7.75683594 11.6261852 5.20361328 1.8234508 5.20361328"></polygon>
                    <path d="M13.8497207,20 L16.8438613,20 L16.8438613,13.5536575 C16.8438613,13.0527115 16.933583,12.6168671 17.1130264,12.2461243 C17.2924697,11.8753815 17.5472953,11.5867233 17.8775032,11.3801498 C18.207711,11.1735764 18.60027,11.0702896 19.0551803,11.0702896 C19.7496688,11.0702896 20.264714,11.2724304 20.6003158,11.676712 C20.9359176,12.0809937 21.1037185,12.6673889 21.1037185,13.4358978 L21.1037185,20 L24.0978591,20 L24.0978591,12.777565 C24.0978591,11.4509659 23.7685592,10.421196 23.1099594,9.68825531 C22.4513595,8.95531464 21.5029266,8.5888443 20.2646606,8.5888443 C19.448941,8.5888443 18.7650268,8.76788712 18.212918,9.12597275 C17.6608093,9.48405838 17.2502792,9.97296143 16.9813278,10.5926819 L16.8438613,10.5926819 L16.8438613,8.82404327 L13.8497207,8.82404327 L13.8497207,20 Z" id="Path"></path>
                    <path d="M30.8154595,20.1115112 C31.1137841,20.1115112 31.3901055,20.0990143 31.6444237,20.0740204 C31.898742,20.0490265 32.1149285,20.0207748 32.2929833,19.9892654 L32.2929833,17.7777863 C32.1689751,17.7901764 32.0483048,17.8009644 31.9309723,17.8101501 C31.8136399,17.8193359 31.6703789,17.8239288 31.5011895,17.8239288 C31.0148766,17.8239288 30.6570313,17.7128716 30.4276536,17.490757 C30.1982758,17.2686424 30.0835869,16.9033203 30.0835869,16.3947906 L30.0835869,11.0799026 L32.2929833,11.0799026 L32.2929833,8.82404327 L30.0835869,8.82404327 L30.0835869,6.13303375 L27.0586846,6.13303375 L27.0586846,8.82404327 L25.4009163,8.82404327 L25.4009163,11.0799026 L27.0586846,11.0799026 L27.0586846,16.9480209 C27.0586846,18.0730667 27.3565285,18.8815765 27.9522164,19.3735504 C28.5479043,19.8655243 29.5023186,20.1115112 30.8154595,20.1115112 Z" id="Path"></path>
                    <path d="M38.9686468,20.2350388 C39.7767828,20.2350388 40.4797361,20.1309242 41.0775068,19.9226952 C41.6752775,19.7144661 42.177532,19.4415627 42.5842702,19.1039848 C42.9910085,18.766407 43.3121107,18.4002571 43.5475767,18.0055351 C43.7830427,17.6108131 43.9435003,17.2276535 44.0289495,16.8560562 L44.0545843,16.744545 L41.2812231,16.7475891 L41.2543066,16.8091125 C41.1859472,16.9754181 41.0574529,17.1508293 40.8688238,17.3353462 C40.6801946,17.5198631 40.4333799,17.6762085 40.1283796,17.8043823 C39.8233793,17.9325562 39.4573095,17.9966431 39.0301702,17.9966431 C38.4980352,17.9966431 38.0392263,17.8789635 37.6537435,17.6436043 C37.2682607,17.4082451 36.9717252,17.0688782 36.764137,16.6255035 C36.5565488,16.1821289 36.4527547,15.6484451 36.4527547,15.0244522 L36.4527547,13.8353195 C36.4527547,13.1908188 36.5575902,12.6443443 36.7672613,12.1958961 C36.9769323,11.747448 37.2654569,11.4072533 37.6328351,11.175312 C38.0002134,10.9433708 38.4215581,10.8274002 38.8968694,10.8274002 C39.3744237,10.8274002 39.7934453,10.9399529 40.1539342,11.1650581 C40.5144231,11.3901634 40.7964323,11.7255516 40.9999616,12.1712227 C41.203491,12.6168938 41.3052557,13.1715927 41.3052557,13.8353195 L41.3052557,15.0141983 L42.7159688,13.244278 L34.9773138,13.244278 L34.9773138,15.124588 L44.1468694,15.124588 L44.1468694,14.1986923 C44.1468694,13.0701218 43.9319913,12.0853996 43.5022352,11.2445259 C43.072479,10.4036522 42.4609563,9.75082016 41.6676672,9.28602982 C40.874378,8.82123947 39.9336889,8.5888443 38.8455999,8.5888443 C37.7576177,8.5888443 36.8127096,8.82807541 36.0108755,9.30653763 C35.2090414,9.78499985 34.5884397,10.4605827 34.1490705,11.3332863 C33.7097013,12.2059898 33.4900167,13.2356262 33.4900167,14.4221954 L33.4900167,14.4324493 C33.4900167,15.6246796 33.7102354,16.6549034 34.1506727,17.5231209 C34.59111,18.3913383 35.2202566,19.060379 36.0381124,19.5302429 C36.8559682,20.0001068 37.832813,20.2350388 38.9686468,20.2350388 Z" id="Path"></path>
                    <path d="M45.8807209,20 L48.8748615,20 L48.8748615,13.7305374 C48.8748615,13.2038498 48.9794834,12.7530251 49.1887271,12.3780632 C49.3979709,12.0031013 49.6978443,11.7148438 50.0883472,11.5132904 C50.4788501,11.3117371 50.9434268,11.2109604 51.4820774,11.2109604 C51.7114017,11.2109604 51.9333827,11.2258072 52.1480205,11.2555008 C52.3626583,11.2851944 52.5621555,11.3267441 52.7465122,11.3801498 L52.7465122,8.76075745 C52.6125705,8.72016907 52.4564655,8.68772507 52.2781971,8.66342545 C52.0999286,8.63912582 51.9154651,8.62697601 51.7248065,8.62697601 C51.024657,8.62697601 50.4376209,8.8020401 49.9636981,9.15216827 C49.4897754,9.50229645 49.1661365,9.99411011 48.9927814,10.6276093 L48.855315,10.6276093 L48.855315,8.82404327 L45.8807209,8.82404327 L45.8807209,20 Z" id="Path"></path>
                    <path d="M64.2757981,20.3324509 C65.5115006,20.3324509 66.5750496,20.1393623 67.4664452,19.7531853 C68.3578408,19.3670082 69.0426896,18.8198128 69.5209916,18.111599 C69.9992936,17.4033852 70.2384446,16.5663834 70.2384446,15.6005936 L70.2384446,15.5903397 C70.2384446,14.4332504 69.8804924,13.5223083 69.1645882,12.8575134 C68.448684,12.1927185 67.3095658,11.7027206 65.7472336,11.3875198 L64.1835129,11.068367 C63.3197281,10.8919144 62.6927712,10.6557007 62.3026421,10.359726 C61.912513,10.0637512 61.7174485,9.67848206 61.7174485,9.20391846 L61.7174485,9.19366455 C61.7174485,8.8289032 61.822284,8.51185989 62.031955,8.24253464 C62.241626,7.97320938 62.5370133,7.76353836 62.9181168,7.61352158 C63.2992203,7.46350479 63.7466538,7.3884964 64.2604172,7.3884964 C64.7772782,7.38636017 65.2322419,7.46155548 65.6253083,7.61408234 C66.0183747,7.76660919 66.3343499,7.97780228 66.5732338,8.24766159 C66.8121178,8.5175209 66.9592774,8.83670044 67.0147126,9.2052002 L67.0332978,9.32824707 L69.9524567,9.32824707 L69.9422028,9.17668152 C69.8837769,8.33511353 69.6223557,7.59047699 69.1579392,6.94277191 C68.6935227,6.29506683 68.0481408,5.78787231 67.2217934,5.42118835 C66.3954461,5.05450439 65.4083207,4.87116241 64.2604172,4.87116241 C63.167949,4.87116241 62.1975663,5.05989838 61.3492692,5.4373703 C60.500972,5.81484222 59.8350022,6.34307861 59.3513596,7.02207947 C58.867717,7.70108032 58.6241868,8.49597168 58.6207688,9.40675354 L58.6207688,9.41700745 C58.6207688,10.537674 58.9777596,11.453289 59.6917412,12.1638527 C60.4057229,12.8744164 61.5150406,13.3823853 63.0196946,13.6877594 L64.5834153,14.0035477 C65.5028489,14.1915359 66.1590989,14.4305534 66.5521653,14.7206001 C66.9452317,15.0106468 67.1417649,15.4009628 67.1417649,15.8915482 L67.1417649,15.9018021 C67.1417649,16.2777786 67.0254738,16.6102562 66.7928917,16.8992348 C66.5603096,17.1882133 66.2358429,17.413105 65.8194916,17.5739098 C65.4031403,17.7347145 64.9142106,17.8151169 64.3527024,17.8151169 C63.7837174,17.8151169 63.2773774,17.7371445 62.8336823,17.5811996 C62.3899872,17.4252548 62.0344651,17.2080002 61.7671158,16.9294357 C61.4997666,16.6508713 61.3403504,16.3250961 61.2888672,15.9521103 L61.2747681,15.8468475 L58.311229,15.8468475 L58.3214829,16.0096283 C58.3816178,16.8963776 58.6601555,17.6630707 59.1570961,18.3097076 C59.6540368,18.9563446 60.33723,19.4551277 61.2066758,19.806057 C62.0761216,20.1569862 63.0991623,20.3324509 64.2757981,20.3324509 Z" id="Path"></path>
                    <path d="M72.1589091,20 L75.1530497,20 L75.1530497,8.82404327 L72.1589091,8.82404327 L72.1589091,20 Z M73.6591837,7.21434021 C74.1187937,7.21434021 74.50927,7.05527115 74.8306124,6.73713303 C75.1519549,6.4189949 75.3126261,6.03743744 75.3126261,5.59246063 C75.3126261,5.14064789 75.1519549,4.75682068 74.8306124,4.440979 C74.50927,4.12513733 74.1187937,3.96721649 73.6591837,3.96721649 C73.205128,3.96721649 72.8160403,4.12513733 72.4919207,4.440979 C72.1678011,4.75682068 72.0057414,5.14064789 72.0057414,5.59246063 C72.0057414,6.03743744 72.1678011,6.4189949 72.4919207,6.73713303 C72.8160403,7.05527115 73.205128,7.21434021 73.6591837,7.21434021 Z" id="Shape"></path>
                    <path d="M81.987829,20.1115112 C82.2861536,20.1115112 82.562475,20.0990143 82.8167932,20.0740204 C83.0711114,20.0490265 83.287298,20.0207748 83.4653528,19.9892654 L83.4653528,17.7777863 C83.3413446,17.7901764 83.2206743,17.8009644 83.1033418,17.8101501 C82.9860094,17.8193359 82.8427484,17.8239288 82.673559,17.8239288 C82.1872461,17.8239288 81.8294008,17.7128716 81.600023,17.490757 C81.3706453,17.2686424 81.2559564,16.9033203 81.2559564,16.3947906 L81.2559564,11.0799026 L83.4653528,11.0799026 L83.4653528,8.82404327 L81.2559564,8.82404327 L81.2559564,6.13303375 L78.2310541,6.13303375 L78.2310541,8.82404327 L76.5732858,8.82404327 L76.5732858,11.0799026 L78.2310541,11.0799026 L78.2310541,16.9480209 C78.2310541,18.0730667 78.528898,18.8815765 79.1245859,19.3735504 C79.7202737,19.8655243 80.6746881,20.1115112 81.987829,20.1115112 Z" id="Path"></path>
                    <path d="M90.1410162,20.2350388 C90.9491522,20.2350388 91.6521056,20.1309242 92.2498763,19.9226952 C92.847647,19.7144661 93.3499014,19.4415627 93.7566397,19.1039848 C94.163378,18.766407 94.4844801,18.4002571 94.7199461,18.0055351 C94.9554121,17.6108131 95.1158698,17.2276535 95.201319,16.8560562 L95.2269537,16.744545 L92.4535925,16.7475891 L92.426676,16.8091125 C92.3583167,16.9754181 92.2298224,17.1508293 92.0411932,17.3353462 C91.8525641,17.5198631 91.6057494,17.6762085 91.3007491,17.8043823 C90.9957488,17.9325562 90.629679,17.9966431 90.2025397,17.9966431 C89.6704047,17.9966431 89.2115958,17.8789635 88.826113,17.6436043 C88.4406302,17.4082451 88.1440947,17.0688782 87.9365065,16.6255035 C87.7289183,16.1821289 87.6251242,15.6484451 87.6251242,15.0244522 L87.6251242,13.8353195 C87.6251242,13.1908188 87.7299597,12.6443443 87.9396307,12.1958961 C88.1493018,11.747448 88.4378264,11.4072533 88.8052046,11.175312 C89.1725829,10.9433708 89.5939276,10.8274002 90.0692389,10.8274002 C90.5467932,10.8274002 90.9658148,10.9399529 91.3263037,11.1650581 C91.6867926,11.3901634 91.9688017,11.7255516 92.1723311,12.1712227 C92.3758605,12.6168938 92.4776251,13.1715927 92.4776251,13.8353195 L92.4776251,15.0141983 L93.8883383,13.244278 L86.1496832,13.244278 L86.1496832,15.124588 L95.3192389,15.124588 L95.3192389,14.1986923 C95.3192389,13.0701218 95.1043608,12.0853996 94.6746047,11.2445259 C94.2448485,10.4036522 93.6333258,9.75082016 92.8400366,9.28602982 C92.0467474,8.82123947 91.1060584,8.5888443 90.0179694,8.5888443 C88.9299872,8.5888443 87.9850791,8.82807541 87.1832449,9.30653763 C86.3814108,9.78499985 85.7608092,10.4605827 85.32144,11.3332863 C84.8820708,12.2059898 84.6623862,13.2356262 84.6623862,14.4221954 L84.6623862,14.4324493 C84.6623862,15.6246796 84.8826048,16.6549034 85.3230422,17.5231209 C85.7634795,18.3913383 86.392626,19.060379 87.2104819,19.5302429 C88.0283377,20.0001068 89.0051825,20.2350388 90.1410162,20.2350388 Z" id="Path"></path>
                </g>
            </g>
        </g>
    </g>
</svg>